<svg width="137" height="24" viewBox="0 0 137 24" fill="none" xmlns="http://www.w3.org/2000/svg">
<g clip-path="url(#clip0_160_73)">
<path d="M19 9L20.25 6.25L23 5L20.25 3.75L19 1L17.75 3.75L15 5L17.75 6.25L19 9Z" fill="#464646"/>
<path d="M19 15L17.75 17.75L15 19L17.75 20.25L19 23L20.25 20.25L23 19L20.25 17.75L19 15Z" fill="#464646"/>
<path d="M11.5 9.5L9 4L6.5 9.5L1 12L6.5 14.5L9 20L11.5 14.5L17 12L11.5 9.5ZM9.99 12.99L9 15.17L8.01 12.99L5.83 12L8.01 11.01L9 8.83L9.99 11.01L12.17 12L9.99 12.99Z" fill="#464646"/>
</g>
<path d="M32.608 15.18C32.7467 15.276 32.992 15.3933 33.344 15.532C33.696 15.66 34.112 15.724 34.592 15.724C35.008 15.724 35.3493 15.6547 35.616 15.516C35.8827 15.3667 36.0853 15.148 36.224 14.86C36.3733 14.572 36.4693 14.1987 36.512 13.74C36.5653 13.2813 36.592 12.732 36.592 12.092V6.14H38.8V11.916C38.8 12.7693 38.752 13.548 38.656 14.252C38.56 14.956 38.3733 15.564 38.096 16.076C37.8187 16.588 37.3973 16.9827 36.832 17.26C36.2773 17.5373 35.536 17.676 34.608 17.676C34.096 17.676 33.6373 17.6173 33.232 17.5C32.8267 17.3827 32.4533 17.2067 32.112 16.972L32.608 15.18ZM44.5668 17.66C43.8841 17.66 43.2708 17.548 42.7268 17.324C42.1828 17.0893 41.7188 16.7693 41.3348 16.364C40.9614 15.9587 40.6734 15.4947 40.4708 14.972C40.2681 14.4493 40.1668 13.9 40.1668 13.324C40.1668 12.7373 40.2681 12.1827 40.4708 11.66C40.6734 11.1373 40.9614 10.6733 41.3348 10.268C41.7188 9.86267 42.1828 9.548 42.7268 9.324C43.2708 9.08933 43.8841 8.972 44.5668 8.972C45.2494 8.972 45.8574 9.08933 46.3908 9.324C46.9348 9.548 47.3988 9.86267 47.7828 10.268C48.1668 10.6733 48.4548 11.1373 48.6468 11.66C48.8494 12.1827 48.9508 12.7373 48.9508 13.324C48.9508 13.9 48.8494 14.4493 48.6468 14.972C48.4548 15.4947 48.1668 15.9587 47.7828 16.364C47.4094 16.7693 46.9508 17.0893 46.4068 17.324C45.8628 17.548 45.2494 17.66 44.5668 17.66ZM42.3748 13.324C42.3748 13.8147 42.4708 14.252 42.6628 14.636C42.8548 15.0093 43.1161 15.3027 43.4468 15.516C43.7774 15.7293 44.1508 15.836 44.5668 15.836C44.9721 15.836 45.3401 15.7293 45.6708 15.516C46.0014 15.292 46.2628 14.9933 46.4548 14.62C46.6574 14.236 46.7588 13.7987 46.7588 13.308C46.7588 12.828 46.6574 12.396 46.4548 12.012C46.2628 11.628 46.0014 11.3293 45.6708 11.116C45.3401 10.9027 44.9721 10.796 44.5668 10.796C44.1508 10.796 43.7774 10.908 43.4468 11.132C43.1161 11.3453 42.8548 11.644 42.6628 12.028C42.4708 12.4013 42.3748 12.8333 42.3748 13.324ZM53.4859 17.66C52.7712 17.66 52.0885 17.5427 51.4379 17.308C50.7872 17.0733 50.2272 16.7267 49.7579 16.268L50.5259 14.876C51.0272 15.2813 51.5179 15.58 51.9979 15.772C52.4885 15.964 52.9579 16.06 53.4059 16.06C53.8219 16.06 54.1525 15.9853 54.3979 15.836C54.6539 15.6867 54.7819 15.4627 54.7819 15.164C54.7819 14.9613 54.7125 14.8067 54.5739 14.7C54.4352 14.5827 54.2325 14.4813 53.9659 14.396C53.7099 14.3107 53.3952 14.2147 53.0219 14.108C52.4032 13.9053 51.8859 13.708 51.4699 13.516C51.0539 13.324 50.7392 13.084 50.5259 12.796C50.3232 12.4973 50.2219 12.1187 50.2219 11.66C50.2219 11.1053 50.3605 10.6307 50.6379 10.236C50.9259 9.83067 51.3205 9.516 51.8219 9.292C52.3339 9.068 52.9312 8.956 53.6139 8.956C54.2112 8.956 54.7765 9.052 55.3099 9.244C55.8432 9.42533 56.3285 9.724 56.7659 10.14L55.9019 11.5C55.4752 11.1693 55.0699 10.9293 54.6859 10.78C54.3019 10.62 53.9125 10.54 53.5179 10.54C53.2939 10.54 53.0805 10.5667 52.8779 10.62C52.6859 10.6733 52.5259 10.764 52.3979 10.892C52.2805 11.0093 52.2219 11.18 52.2219 11.404C52.2219 11.6067 52.2752 11.7667 52.3819 11.884C52.4992 11.9907 52.6699 12.0867 52.8939 12.172C53.1285 12.2573 53.4112 12.3533 53.7419 12.46C54.4139 12.652 54.9792 12.8493 55.4379 13.052C55.9072 13.2547 56.2592 13.5053 56.4939 13.804C56.7285 14.092 56.8459 14.492 56.8459 15.004C56.8459 15.836 56.5419 16.4867 55.9339 16.956C55.3259 17.4253 54.5099 17.66 53.4859 17.66ZM62.1921 17.66C61.5201 17.66 60.9121 17.548 60.3681 17.324C59.8241 17.0893 59.3601 16.7747 58.9761 16.38C58.5921 15.9747 58.2935 15.516 58.0801 15.004C57.8775 14.4813 57.7761 13.932 57.7761 13.356C57.7761 12.556 57.9521 11.8253 58.3041 11.164C58.6668 10.5027 59.1788 9.97467 59.8401 9.58C60.5121 9.17467 61.3015 8.972 62.2081 8.972C63.1255 8.972 63.9095 9.17467 64.5601 9.58C65.2108 9.97467 65.7068 10.5027 66.0481 11.164C66.4001 11.8147 66.5761 12.5187 66.5761 13.276C66.5761 13.404 66.5708 13.5373 66.5601 13.676C66.5495 13.804 66.5388 13.9107 66.5281 13.996H60.0481C60.0908 14.4227 60.2135 14.796 60.4161 15.116C60.6295 15.436 60.8961 15.6813 61.2161 15.852C61.5468 16.012 61.8988 16.092 62.2721 16.092C62.6988 16.092 63.0988 15.9907 63.4721 15.788C63.8561 15.5747 64.1175 15.2973 64.2561 14.956L66.0961 15.468C65.8935 15.8947 65.6001 16.2733 65.2161 16.604C64.8428 16.9347 64.4001 17.196 63.8881 17.388C63.3761 17.5693 62.8108 17.66 62.1921 17.66ZM60.0001 12.636H64.3841C64.3415 12.2093 64.2188 11.8413 64.0161 11.532C63.8241 11.212 63.5681 10.9667 63.2481 10.796C62.9281 10.6147 62.5708 10.524 62.1761 10.524C61.7921 10.524 61.4401 10.6147 61.1201 10.796C60.8108 10.9667 60.5548 11.212 60.3521 11.532C60.1601 11.8413 60.0428 12.2093 60.0001 12.636ZM62.8801 8.14L61.5041 7.724L62.3681 5.82H64.3681L62.8801 8.14ZM74.522 6.14H76.762L80.938 17.5H78.666L77.61 14.668H73.642L72.602 17.5H70.33L74.522 6.14ZM77.21 13.116L75.642 8.428L74.01 13.116H77.21ZM81.2296 13.308C81.2296 12.4973 81.3896 11.7667 81.7096 11.116C82.0296 10.4547 82.4723 9.932 83.0376 9.548C83.603 9.164 84.2483 8.972 84.9736 8.972C85.5923 8.972 86.147 9.12667 86.6376 9.436C87.139 9.73467 87.5283 10.1187 87.8056 10.588V5.82H89.9496V15.1C89.9496 15.324 89.987 15.484 90.0616 15.58C90.1363 15.676 90.2643 15.7347 90.4456 15.756V17.5C90.0723 17.5747 89.7683 17.612 89.5336 17.612C89.1496 17.612 88.8296 17.516 88.5736 17.324C88.3283 17.132 88.1896 16.8813 88.1576 16.572L88.1256 16.044C87.8163 16.5667 87.395 16.9667 86.8616 17.244C86.339 17.5213 85.7896 17.66 85.2136 17.66C84.6376 17.66 84.1043 17.548 83.6136 17.324C83.1336 17.1 82.7123 16.7907 82.3496 16.396C81.9976 16.0013 81.7203 15.5427 81.5176 15.02C81.3256 14.4867 81.2296 13.916 81.2296 13.308ZM87.8056 14.428V12.428C87.699 12.1187 87.5283 11.8413 87.2936 11.596C87.059 11.3507 86.7976 11.1587 86.5096 11.02C86.2216 10.8707 85.9336 10.796 85.6456 10.796C85.315 10.796 85.0163 10.8653 84.7496 11.004C84.483 11.1427 84.2483 11.3293 84.0456 11.564C83.8536 11.7987 83.7043 12.0707 83.5976 12.38C83.5016 12.6893 83.4536 13.0147 83.4536 13.356C83.4536 13.6973 83.507 14.0227 83.6136 14.332C83.731 14.6307 83.8963 14.892 84.1096 15.116C84.323 15.34 84.5683 15.516 84.8456 15.644C85.1336 15.772 85.443 15.836 85.7736 15.836C85.9763 15.836 86.179 15.804 86.3816 15.74C86.595 15.6653 86.7923 15.5693 86.9736 15.452C87.1656 15.324 87.331 15.1747 87.4696 15.004C87.619 14.8227 87.731 14.6307 87.8056 14.428ZM91.4781 15.02C91.4781 14.476 91.6275 14.0013 91.9261 13.596C92.2355 13.18 92.6621 12.86 93.2061 12.636C93.7501 12.412 94.3741 12.3 95.0781 12.3C95.4301 12.3 95.7875 12.3267 96.1501 12.38C96.5128 12.4333 96.8275 12.5187 97.0941 12.636V12.188C97.0941 11.6547 96.9341 11.244 96.6141 10.956C96.3048 10.668 95.8408 10.524 95.2221 10.524C94.7635 10.524 94.3261 10.604 93.9101 10.764C93.4941 10.924 93.0568 11.1587 92.5981 11.468L91.9101 10.06C92.4648 9.69733 93.0301 9.42533 93.6061 9.244C94.1928 9.06267 94.8061 8.972 95.4461 8.972C96.6408 8.972 97.5688 9.27067 98.2301 9.868C98.9021 10.4653 99.2381 11.3187 99.2381 12.428V15.1C99.2381 15.324 99.2755 15.484 99.3501 15.58C99.4355 15.676 99.5688 15.7347 99.7501 15.756V17.5C99.5581 17.532 99.3821 17.5587 99.2221 17.58C99.0728 17.6013 98.9448 17.612 98.8381 17.612C98.4115 17.612 98.0861 17.516 97.8621 17.324C97.6488 17.132 97.5155 16.8973 97.4621 16.62L97.4141 16.188C97.0515 16.6573 96.5981 17.02 96.0541 17.276C95.5101 17.532 94.9555 17.66 94.3901 17.66C93.8355 17.66 93.3341 17.548 92.8861 17.324C92.4488 17.0893 92.1021 16.7747 91.8461 16.38C91.6008 15.9747 91.4781 15.5213 91.4781 15.02ZM96.6941 15.452C96.8115 15.324 96.9075 15.196 96.9821 15.068C97.0568 14.94 97.0941 14.8227 97.0941 14.716V13.868C96.8381 13.7613 96.5608 13.6813 96.2621 13.628C95.9635 13.564 95.6808 13.532 95.4141 13.532C94.8595 13.532 94.4008 13.6547 94.0381 13.9C93.6861 14.1347 93.5101 14.4493 93.5101 14.844C93.5101 15.0573 93.5688 15.26 93.6861 15.452C93.8035 15.644 93.9741 15.7987 94.1981 15.916C94.4221 16.0333 94.6888 16.092 94.9981 16.092C95.3181 16.092 95.6328 16.0333 95.9421 15.916C96.2515 15.788 96.5021 15.6333 96.6941 15.452ZM101.242 17.5V9.116H103.386V17.5H101.242ZM101.242 7.948V5.82H103.386V7.948H101.242ZM105.304 5.82H107.448V14.812C107.448 15.196 107.512 15.4573 107.64 15.596C107.768 15.724 107.944 15.788 108.168 15.788C108.338 15.788 108.514 15.7667 108.696 15.724C108.877 15.6813 109.037 15.628 109.176 15.564L109.464 17.196C109.176 17.3347 108.84 17.4413 108.456 17.516C108.072 17.5907 107.725 17.628 107.416 17.628C106.744 17.628 106.221 17.452 105.848 17.1C105.485 16.7373 105.304 16.2253 105.304 15.564V5.82ZM113.486 17.66C112.771 17.66 112.089 17.5427 111.438 17.308C110.787 17.0733 110.227 16.7267 109.758 16.268L110.526 14.876C111.027 15.2813 111.518 15.58 111.998 15.772C112.489 15.964 112.958 16.06 113.406 16.06C113.822 16.06 114.153 15.9853 114.398 15.836C114.654 15.6867 114.782 15.4627 114.782 15.164C114.782 14.9613 114.713 14.8067 114.574 14.7C114.435 14.5827 114.233 14.4813 113.966 14.396C113.71 14.3107 113.395 14.2147 113.022 14.108C112.403 13.9053 111.886 13.708 111.47 13.516C111.054 13.324 110.739 13.084 110.526 12.796C110.323 12.4973 110.222 12.1187 110.222 11.66C110.222 11.1053 110.361 10.6307 110.638 10.236C110.926 9.83067 111.321 9.516 111.822 9.292C112.334 9.068 112.931 8.956 113.614 8.956C114.211 8.956 114.777 9.052 115.31 9.244C115.843 9.42533 116.329 9.724 116.766 10.14L115.902 11.5C115.475 11.1693 115.07 10.9293 114.686 10.78C114.302 10.62 113.913 10.54 113.518 10.54C113.294 10.54 113.081 10.5667 112.878 10.62C112.686 10.6733 112.526 10.764 112.398 10.892C112.281 11.0093 112.222 11.18 112.222 11.404C112.222 11.6067 112.275 11.7667 112.382 11.884C112.499 11.9907 112.67 12.0867 112.894 12.172C113.129 12.2573 113.411 12.3533 113.742 12.46C114.414 12.652 114.979 12.8493 115.438 13.052C115.907 13.2547 116.259 13.5053 116.494 13.804C116.729 14.092 116.846 14.492 116.846 15.004C116.846 15.836 116.542 16.4867 115.934 16.956C115.326 17.4253 114.51 17.66 113.486 17.66ZM122.176 17.66C121.493 17.66 120.88 17.548 120.336 17.324C119.792 17.0893 119.328 16.7693 118.944 16.364C118.571 15.9587 118.283 15.4947 118.08 14.972C117.877 14.4493 117.776 13.9 117.776 13.324C117.776 12.7373 117.877 12.1827 118.08 11.66C118.283 11.1373 118.571 10.6733 118.944 10.268C119.328 9.86267 119.792 9.548 120.336 9.324C120.88 9.08933 121.493 8.972 122.176 8.972C122.859 8.972 123.467 9.08933 124 9.324C124.544 9.548 125.008 9.86267 125.392 10.268C125.776 10.6733 126.064 11.1373 126.256 11.66C126.459 12.1827 126.56 12.7373 126.56 13.324C126.56 13.9 126.459 14.4493 126.256 14.972C126.064 15.4947 125.776 15.9587 125.392 16.364C125.019 16.7693 124.56 17.0893 124.016 17.324C123.472 17.548 122.859 17.66 122.176 17.66ZM119.984 13.324C119.984 13.8147 120.08 14.252 120.272 14.636C120.464 15.0093 120.725 15.3027 121.056 15.516C121.387 15.7293 121.76 15.836 122.176 15.836C122.581 15.836 122.949 15.7293 123.28 15.516C123.611 15.292 123.872 14.9933 124.064 14.62C124.267 14.236 124.368 13.7987 124.368 13.308C124.368 12.828 124.267 12.396 124.064 12.012C123.872 11.628 123.611 11.3293 123.28 11.116C122.949 10.9027 122.581 10.796 122.176 10.796C121.76 10.796 121.387 10.908 121.056 11.132C120.725 11.3453 120.464 11.644 120.272 12.028C120.08 12.4013 119.984 12.8333 119.984 13.324ZM135.799 17.5H133.655V12.796C133.655 12.124 133.538 11.6333 133.303 11.324C133.069 11.0147 132.743 10.86 132.327 10.86C132.039 10.86 131.746 10.9347 131.447 11.084C131.159 11.2333 130.898 11.4413 130.663 11.708C130.429 11.964 130.258 12.2627 130.151 12.604V17.5H128.007V9.116H129.943V10.668C130.157 10.3053 130.429 10.0013 130.759 9.756C131.09 9.5 131.469 9.308 131.895 9.18C132.333 9.04133 132.791 8.972 133.271 8.972C133.794 8.972 134.221 9.068 134.551 9.26C134.893 9.44133 135.149 9.692 135.319 10.012C135.501 10.3213 135.623 10.6733 135.687 11.068C135.762 11.4627 135.799 11.8627 135.799 12.268V17.5Z" fill="#464646"/>
<defs>
<clipPath id="clip0_160_73">
<rect width="24" height="24" fill="white"/>
</clipPath>
</defs>
</svg>
